<?xml version="1.0" encoding="UTF-8"?>
<svg id="Layer_2" data-name="Layer 2" xmlns="http://www.w3.org/2000/svg" viewBox="0 0 468.39 390.2">
  <g id="Layer_1-2" data-name="Layer 1">
    <g>
      <path d="M362.12,390.2h-47.5c-9.33,0-21.96-10.93-25.67-19.33L154.12,101.2h21.5c24.71,45.12,47.01,91.52,70.98,137.02,11.74,22.28,23.88,47.79,37.11,68.89,8.5,13.56,22.55,31.19,39.94,32.08,4.69.24,15.55-3.19,17.99-1l20.49,52.01Z"/>
      <path d="M218.92.58c18.2-1.33,39.41-.61,56.97,4.44,7.15,2.06,21.86,7.52,23.18,15.82.87,5.52.77,24.21.08,29.97-1.63,13.57-25.57,19.35-36.81,21.19-17.84,2.91-36.56,2.66-54.43.02-9.78-1.45-35.89-7.76-37.72-19.28-.9-5.7-.79-25.02-.08-30.97,1.04-8.78,12.1-12.99,19.5-15.5,9.01-3.05,19.81-4.99,29.32-5.68ZM295.12,24.3l-17.24,7.25c-24.94,7.16-70.61,7.16-94.74-2.78-1.58-.65-8.52-4.92-9.02-4.47,1.32,3.05,3.95,5.06,6.68,6.81,22.63,14.45,85.92,14.73,108.23-.4,2.66-1.81,4.71-3.31,6.08-6.41ZM286.12,57.3c-23.21,8-48.03,8.76-72.37,6.86l-30.64-6.37c28.51,13.42,69.99,14.7,98.96,1.95,1.24-.54,4.01-.96,4.05-2.44Z"/>
      <path d="M107.62,390.2l-1.07-2.03,20.04-50c1.9-2.01,13.03,1.2,17.03,1.1,21.66-.57,35.98-22.68,45.67-39.39,10.48-18.09,18.97-37.52,29.34-55.68,2.08-.45,1.35.9,1.98,1.98,2.01,3.5,10.67,20.2,10.1,23.03l-52.16,103.92c-3.33,7.88-16.57,17.08-24.92,17.08h-46Z"/>
      <path d="M87.05,237.12l-27.91,6.06c-1.16-8.49-4.1-15.21-2.58-24.04,3.4-19.74,25.05-28.08,14.62-51.51-3.64-8.17-12.3-7.4-19.3-4.17-11.26,5.2-4.04,15.36-4.87,24.64l-28.88,7.1c-7.66-27.76-4.62-45.43,24.22-55.28,33.39-11.41,58.49-3.95,62.5,34.05,2.1,19.9-6.25,23.06-14.75,37.7-5.73,9.86-5.44,14.34-3.04,25.44Z"/>
      <path d="M416.47,228.55c-3.67,3.96-5.02,10.53-6.43,15.58l-26.87-4.97c.27-12.16,4.3-21.92,13.48-29.93,9.16-7.99,23.11-11.62,27.2-23.8,3.22-9.61,3.91-19.86-8.47-21.99-15.49-2.65-16.3,6.01-18.28,18.74l-29.98-5.99c3.27-17.01,9.26-36.94,29.51-38.98,19.72-1.99,52.83,5.09,59.01,26.97,3.5,12.41-.9,35.51-9.99,45.05-7.86,8.24-22.23,11.82-29.18,19.31Z"/>
      <path d="M386.12,389.2l-22-56.99c19.44-3.37,39.39-9.77,58.79-12.72,9.19-1.4,16.83-2.54,25.53,1.89,14.55,7.41,24.48,36.84,17.85,51.49-7.54,16.67-43.24,14.92-58.54,16.19l-16.63-51.86,8.99,51.99h-14ZM426.9,326.48c-2.79.26-10.32,1.3-10.83,4.24l8.21,47.82c2.36,3.94,17.94.16,22.13-1.55,12.81-5.22,9.19-18.43,5.47-29.05-4.14-11.82-11.07-22.78-24.98-21.46Z"/>
      <path d="M68.12,389.2l7.99-48-14.09,47.89-26.39-.91c-28-3.17-42.07-12.45-32.8-42.77s25.94-28.86,52.47-23.91c16.33,3.05,32.47,7.66,48.81,10.7l-22,56.99h-14ZM44.02,380.1l8.98-50.33c-20.94-10.66-32.34,2.57-37.82,21.99-7.06,25.03,7,28.48,28.85,28.34Z"/>
      <path d="M315.12,101.2l-66.49,129.01-11.04-22.08c18.17-34.55,35.09-69.88,53.94-104.06.49-.88.67-1.86.59-2.86h23Z"/>
      <polygon points="92.12 248.2 98.7 276.24 68.08 283.78 61.14 255.24 92.12 248.2"/>
      <polygon points="409.1 256.24 403.11 285.21 372.11 278.19 379.08 249.62 409.1 256.24"/>
      <path d="M358.01,334.32l20.1,54.88-6.56.67c-8.77-17.28-15.51-36.39-22.44-54.66l8.9-.89Z"/>
      <path d="M119.12,335.21l-20.9,53.37-8.1.61,20.49-53.99c2.03-2.45,5.92.07,8.51,0Z"/>
      <path d="M111.12,293.21c-2.3,4.47,1.77,6.21,5.33,8.17,8.06,4.44,17.69,5.91,26.54,7.96l.13,6.87c-13.67-.74-26.45-5.96-38.43-12.07l-2.07,3.05-5.5-11.97,14-2Z"/>
      <path d="M368.11,306.2c-6.13-3.9-6.72-.27-11.61,1.88-9.5,4.17-19.96,7.28-30.38,8.13l.13-6.87c9.76-2.17,21.06-4.42,29.55-9.94,3.16-2.06,3.74-2.28,2.32-6.19,2.27-.15,13.62.57,14,2.51l-4.02,10.48Z"/>
      <path d="M139.12,102.2l-.1,6.91c-5.09-.16-30.98,8.62-31.69,12.71-.18,1.03,1.15,3.06.79,3.38l-13.99-1,5.5-12.98,2.07,3.05c11.76-5.75,24.14-11.21,37.43-12.07Z"/>
      <path d="M366.91,113.91c.35-.18.11-2.7,3.2-1.71l3.02,12-14,.99,1.81-3.51c-.31-3.65-27-12.81-31.71-12.58l-.1-6.9c10.75.63,20.97,4.55,30.69,8.81,2.02.88,5.06,3.94,7.1,2.9Z"/>
    </g>
  </g>
</svg>